#!OML:ASF E:\Steps\Project 1\Capture day 1\Session 2\Subject.ASF
:FULLY-SPECIFIED
:DEGREES
493
root 9.79728 16.3455 19.2057 -10.9639 -88.1354 37.319
lowerback -29.1293 -1.90559 -4.41959
upperback -4.6996 -1.54131 -0.126577
thorax 10.8961 -1.06829 1.79707
lowerneck 1.07661 -0.552649 0.174717
upperneck -11.238 -0.530384 3.98745
head -3.83557 -0.517045 1.31587
rclavicle 4.88265e-015 -1.98785e-015
rhumerus -30.5467 -24.3425 -79.8332
rradius 19.302
rwrist 18.9358
rhand -10.3712 -53.2095
rfingers 7.12502
rthumb 15.6261 -82.5984
lclavicle 4.88265e-015 -1.98785e-015
lhumerus -26.7578 -4.12977 89.5961
lradius 19.1924
lwrist -5.66306
lhand -23.0611 -12.9959
lfingers 7.12502
lthumb 3.38407 16.957
rfemur -27.2062 8.92473 15.3788
rtibia 9.74582
rfoot -18.787 -11.6871
rtoes -29.2737
lfemur -28.5026 -11.552 -16.7367
ltibia 12.404
lfoot -9.66087 7.68355
ltoes -32.2343
494
root 9.78867 16.3439 19.2002 -10.9197 -88.1185 37.2977
lowerback -29.1846 -1.91279 -4.46979
upperback -4.71074 -1.52862 -0.1764
thorax 10.9097 -1.06422 1.77306
lowerneck 1.05215 -0.540703 0.245056
upperneck -11.2236 -0.508343 4.03125
head -3.82641 -0.510827 1.31684
rclavicle 7.74018e-015 1.66979e-014
rhumerus -30.6042 -24.5195 -79.852
rradius 19.3076
rwrist 19.0311
rhand -10.5479 -53.1726
rfingers 7.12502
rthumb 15.4559 -82.5747
lclavicle 7.74018e-015 1.66979e-014
lhumerus -26.8657 -4.07634 89.5478
lradius 19.1629
lwrist -5.6286
lhand -23.125 -13.0158
lfingers 7.12502
lthumb 3.32242 16.9381
rfemur -27.29 8.4254 15.5339
rtibia 9.89786
rfoot -18.7527 -11.4428
rtoes -30.3187
lfemur -28.5095 -11.4684 -16.7382
ltibia 12.4413
lfoot -9.6636 7.64358
ltoes -32.3176
495
root 9.77984 16.342 19.1925 -9.24782 -88.099 35.5981
lowerback -29.1815 -1.9133 -4.4989
upperback -4.72335 -1.51965 -0.192319
thorax 10.8931 -1.06072 1.77537
lowerneck 1.09481 -0.569889 0.168798
upperneck -11.2635 -0.537441 4.16336
head -3.84859 -0.529001 1.37675
rclavicle 9.97651e-015 1.59028e-014
rhumerus -30.6652 -24.57 -79.9178
rradius 19.3445
rwrist 18.8085
rhand -10.6169 -53.4516
rfingers 7.12502
rthumb 15.3896 -82.8588
lclavicle 9.97651e-015 1.59028e-014
lhumerus -26.9845 -3.95547 89.5072
lradius 19.0893
lwrist -5.78315
lhand -23.0931 -13.1515
lfingers 7.12502
lthumb 3.35321 16.8019
rfemur -27.2453 8.40359 15.6447
rtibia 9.92316
rfoot -18.7872 -11.4954
rtoes -30.5974
lfemur -28.466 -11.2299 -16.7268
ltibia 12.5009
lfoot -9.70254 7.43512
ltoes -32.3355
496
root 9.76988 16.3417 19.1877 -8.16432 -88.0448 34.4466
lowerback -29.1633 -1.92778 -4.54521
upperback -4.70966 -1.52334 -0.18857
thorax 10.901 -1.06376 1.8052
lowerneck 1.10235 -0.592286 -0.0828321
upperneck -11.2813 -0.554057 4.42821
head -3.85696 -0.53866 1.51136
rclavicle 8.7838e-015 1.11319e-014
rhumerus -30.6386 -24.435 -80.0004
rradius 19.3653
rwrist 18.5292
rhand -10.6033 -53.7495
rfingers 7.12502
rthumb 15.4026 -83.1557
lclavicle 8.7838e-015 1.11319e-014
lhumerus -27.069 -3.68908 89.4834
lradius 18.9725
lwrist -6.14593
lhand -23.1437 -13.2421
lfingers 7.12502
lthumb 3.30432 16.7121
rfemur -27.0991 8.54802 15.6484
rtibia 9.87618
rfoot -18.8393 -11.5174
rtoes -29.8043
lfemur -28.3535 -11.1377 -16.7443
ltibia 12.502
lfoot -9.70796 7.32395
ltoes -32.7432
497
root 9.75891 16.3409 19.1859 -6.72337 -88.0273 32.9562
lowerback -29.1958 -1.94037 -4.53078
upperback -4.66762 -1.5391 -0.180272
thorax 10.9671 -1.07099 1.79917
lowerneck 1.05864 -0.606729 0.111058
upperneck -11.3294 -0.584803 4.22725
head -3.864 -0.554448 1.41087
rclavicle -6.72141e-015 1.35174e-014
rhumerus -30.5341 -24.6677 -79.9574
rradius 19.2599
rwrist 18.7498
rhand -10.3985 -54.1061
rfingers 7.12502
rthumb 15.5999 -83.497
lclavicle -6.72141e-015 1.35174e-014
lhumerus -27.0851 -3.36154 89.4186
lradius 18.8359
lwrist -6.475
lhand -23.2789 -13.1455
lfingers 7.12502
lthumb 3.17381 16.8106
rfemur -27.0179 8.51134 15.72
rtibia 9.92455
rfoot -18.8296 -11.3745
rtoes -28.6844
lfemur -28.2569 -11.2138 -16.6951
ltibia 12.5036
lfoot -9.72714 7.45913
ltoes -33.8134
498
root 9.74878 16.3395 19.1855 -5.56346 -88.0602 31.8023
lowerback -29.2584 -1.90848 -4.44897
upperback -4.65661 -1.51718 -0.201134
thorax 11.0079 -1.05818 1.73507
lowerneck 1.01235 -0.623272 0.0450188
upperneck -11.2962 -0.604847 4.30125
head -3.84295 -0.563809 1.44702
rclavicle 9.44227e-015 2.78299e-015
rhumerus -30.5374 -25.3489 -79.7285
rradius 19.0901
rwrist 19.3524
rhand -10.232 -54.0245
rfingers 7.12502
rthumb 15.7603 -83.4028
lclavicle 9.44227e-015 2.78299e-015
lhumerus -27.1363 -3.10229 89.3286
lradius 18.7075
lwrist -6.60778
lhand -23.2707 -13.0969
lfingers 7.12502
lthumb 3.18171 16.8591
rfemur -27.0738 8.20105 15.8865
rtibia 10.125
rfoot -18.8877 -11.0301
rtoes -28.4392
lfemur -28.2026 -11.2113 -16.6469
ltibia 12.4908
lfoot -9.72764 7.52857
ltoes -34.4587
499
root 9.73778 16.3389 19.1847 -4.39755 -88.0809 30.6446
lowerback -29.3248 -1.8625 -4.36097
upperback -4.65497 -1.47373 -0.275369
thorax 11.0368 -1.03425 1.61473
lowerneck 0.903654 -0.589437 0.153794
upperneck -11.1667 -0.551206 4.39083
head -3.77775 -0.542387 1.45241
rclavicle 8.07563e-015 2.38542e-014
rhumerus -30.6233 -25.9322 -79.6196
rradius 19.0028
rwrist 19.8573
rhand -10.176 -53.6516
rfingers 7.12502
rthumb 15.8142 -83.0257
lclavicle 8.07563e-015 2.38542e-014
lhumerus -27.2328 -2.94756 89.1756
lradius 18.6088
lwrist -6.718
lhand -23.2763 -13.0969
lfingers 7.12502
lthumb 3.17631 16.8591
rfemur -26.9849 8.22924 15.963
rtibia 10.0282
rfoot -18.8686 -11.0125
rtoes -28.8088
lfemur -28.1463 -11.3184 -16.5577
ltibia 12.4535
lfoot -9.70716 7.59802
ltoes -34.1998
500
root 9.72537 16.3368 19.1822 -4.01909 -88.0669 30.262
lowerback -29.3827 -1.84203 -4.38956
upperback -4.63822 -1.42618 -0.345282
thorax 11.0811 -1.01274 1.56819
lowerneck 0.699429 -0.488412 0.981391
upperneck -11.0333 -0.449104 3.73518
head -3.69162 -0.494373 1.08022
rclavicle -1.93815e-015 9.54166e-015
rhumerus -30.698 -26.4154 -79.5678
rradius 18.9666
rwrist 20.2291
rhand -9.96155 -53.524
rfingers 7.12502
rthumb 16.0207 -82.8816
lclavicle -1.93815e-015 9.54166e-015
lhumerus -27.3349 -2.96249 89.0866
lradius 18.5533
lwrist -6.80674
lhand -23.3099 -13.097
lfingers 7.12502
lthumb 3.14383 16.8595
rfemur -26.8942 8.2418 16.003
rtibia 9.96523
rfoot -18.8067 -11.1149
rtoes -28.9814
lfemur -28.0801 -11.5482 -16.4861
ltibia 12.4253
lfoot -9.72431 7.74029
ltoes -34.0079
501
root 9.71446 16.3345 19.1773 -3.10183 -88.0762 29.3651
lowerback -29.4304 -1.87593 -4.48454
upperback -4.65821 -1.44784 -0.284353
thorax 11.0865 -1.02823 1.68362
lowerneck 0.697142 -0.521388 0.84455
upperneck -11.0326 -0.489456 3.8404
head -3.69039 -0.513021 1.14049
rclavicle -1.36664e-015 3.61788e-014
rhumerus -30.7198 -26.5148 -79.4552
rradius 18.8819
rwrist 20.3509
rhand -10.001 -53.4575
rfingers 7.12502
rthumb 15.9827 -82.8181
lclavicle -1.36664e-015 3.61788e-014
lhumerus -27.4797 -2.70653 89.1143
lradius 18.4391
lwrist -7.09427
lhand -23.2159 -13.1402
lfingers 7.12502
lthumb 3.23465 16.8151
rfemur -26.8921 8.31377 16.0612
rtibia 10.0088
rfoot -18.7919 -11.2682
rtoes -28.8235
lfemur -28.0472 -11.525 -16.4486
ltibia 12.42
lfoot -9.81451 7.6993
ltoes -33.2499
502
root 9.70283 16.3333 19.1712 0.334079 -88.109 25.9596
lowerback -29.5084 -1.94252 -4.49417
upperback -4.69043 -1.54743 -0.148265
thorax 11.0989 -1.07839 1.80528
lowerneck 0.723318 -0.475285 0.729923
upperneck -11.0354 -0.433843 3.8026
head -3.69724 -0.479047 1.14646
rclavicle 1.19768e-014 3.61788e-014
rhumerus -30.6499 -25.8741 -79.5834
rradius 18.8573
rwrist 19.9474
rhand -10.5694 -53.3201
rfingers 7.12502
rthumb 15.4353 -82.7238
lclavicle 1.19768e-014 3.61788e-014
lhumerus -27.6579 -2.12463 89.0903
lradius 18.2937
lwrist -7.49569
lhand -23.1062 -13.1564
lfingers 7.12502
lthumb 3.34056 16.7971
rfemur -26.9245 8.37547 16.228
rtibia 10.0982
rfoot -18.8564 -11.1359
rtoes -28.332
lfemur -28.0415 -11.3984 -16.3085
ltibia 12.4411
lfoot -9.98878 7.58448
ltoes -31.7568
503
root 9.68972 16.3319 19.1665 2.44701 -88.1062 23.824
lowerback -29.5399 -1.93299 -4.47214
upperback -4.69088 -1.54236 -0.133221
thorax 11.114 -1.07579 1.8111
lowerneck 0.755093 -0.520743 0.671214
upperneck -11.0937 -0.491225 3.85607
head -3.72297 -0.508908 1.17767
rclavicle -3.32964e-015 -5.56597e-015
rhumerus -30.6528 -25.3059 -79.8121
rradius 18.9886
rwrist 19.3172
rhand -10.8994 -53.3113
rfingers 7.12502
rthumb 15.1174 -82.7392
lclavicle -3.32964e-015 -5.56597e-015
lhumerus -27.7882 -1.78975 88.9836
lradius 18.1566
lwrist -7.70015
lhand -22.9882 -13.1421
lfingers 7.12502
lthumb 3.45451 16.8097
rfemur -26.8943 8.30399 16.3453
rtibia 10.1915
rfoot -19.0101 -10.7778
rtoes -27.2932
lfemur -28.0009 -11.3081 -16.2345
ltibia 12.5035
lfoot -10.1093 7.38682
ltoes -30.4515
504
root 9.67993 16.3308 19.1636 2.42158 -88.0583 23.7765
lowerback -29.4808 -1.89249 -4.4633
upperback -4.67357 -1.48602 -0.189391
thorax 11.0988 -1.04724 1.76446
lowerneck 0.609785 -0.577556 0.853278
upperneck -11.0045 -0.585745 3.63596
head -3.66145 -0.550941 1.07302
rclavicle 1.29955e-014 -8.74653e-015
rhumerus -30.7049 -25.4457 -79.8047
rradius 19.046
rwrist 19.2432
rhand -10.7508 -53.4941
rfingers 7.12502
rthumb 15.2605 -82.9112
lclavicle 1.29955e-014 -8.74653e-015
lhumerus -27.862 -1.52586 88.8397
lradius 17.9879
lwrist -7.95686
lhand -22.8978 -13.189
lfingers 7.12502
lthumb 3.54178 16.7613
rfemur -26.652 8.71692 16.2412
rtibia 9.97173
rfoot -19.0628 -11.096
rtoes -26.7441
lfemur -27.9429 -11.1228 -16.3154
ltibia 12.6159
lfoot -10.0996 7.11588
ltoes -30.1914
505
root 9.67246 16.3306 19.163 0.727326 -87.9986 25.4466
lowerback -29.4522 -1.93618 -4.51907
upperback -4.67265 -1.52836 -0.169962
thorax 11.0899 -1.06895 1.80319
lowerneck 0.496887 -0.574679 0.787885
upperneck -10.9314 -0.597956 3.52596
head -3.61354 -0.547226 1.04633
rclavicle 1.86361e-016 -7.95139e-015
rhumerus -30.7245 -26.0228 -79.5134
rradius 18.9534
rwrist 19.9604
rhand -10.3618 -53.5953
rfingers 7.12502
rthumb 15.6352 -82.9834
lclavicle 1.86361e-016 -7.95139e-015
lhumerus -28.0191 -1.22444 88.84
lradius 17.9251
lwrist -8.16326
lhand -23.0605 -13.2704
lfingers 7.12502
lthumb 3.38469 16.6825
rfemur -26.5445 8.6775 16.1862
rtibia 9.89358
rfoot -19.031 -11.1762
rtoes -26.9507
lfemur -27.9156 -11.0263 -16.454
ltibia 12.6769
lfoot -10.0377 7.0361
ltoes -31.0009
506
root 9.66211 16.3327 19.1634 -1.93313 -87.9737 28.0799
lowerback -29.4506 -1.97793 -4.59158
upperback -4.67012 -1.56331 -0.139215
thorax 11.0967 -1.08857 1.86677
lowerneck 0.469181 -0.525683 0.72462
upperneck -10.9261 -0.546951 3.38773
head -3.60685 -0.513152 1.0097
rclavicle -2.01269e-015 1.43125e-014
rhumerus -30.7834 -26.4817 -79.2197
rradius 18.9337
rwrist 20.6181
rhand -9.91149 -53.6508
rfingers 7.12502
rthumb 16.0689 -83.0046
lclavicle -2.01269e-015 1.43125e-014
lhumerus -28.2594 -1.31696 89.013
lradius 17.9502
lwrist -7.98001
lhand -23.3634 -13.2178
lfingers 7.12502
lthumb 3.09215 16.7396
rfemur -26.4587 8.45554 16.146
rtibia 9.87424
rfoot -18.981 -11.0286
rtoes -26.929
lfemur -27.8079 -11.0884 -16.5861
ltibia 12.637
lfoot -9.97163 7.08491
ltoes -31.7469
